<svg width="419" height="40" viewBox="0 0 419 40" fill="none" xmlns="http://www.w3.org/2000/svg">
<path fill-rule="evenodd" clip-rule="evenodd" d="M35.7772 39.9836V29.6104H24.5466C21.4924 29.6104 18.6634 31.2231 17.0991 33.8559L13.4582 39.9836H35.7772Z" fill="#63D2F9"/>
<path fill-rule="evenodd" clip-rule="evenodd" d="M0.0330811 0.133514V10.5067H29.6137L35.7773 0.133514H0.0330811Z" fill="#4E5EE4"/>
<path fill-rule="evenodd" clip-rule="evenodd" d="M14.1901 16.3452L0.0656738 39.9836H12.0993L28.9896 11.7036H22.3446C19.0022 11.7036 15.9057 13.4662 14.1901 16.3452Z" fill="#63B0F9"/>
<path d="M61.3793 30.03C55.3282 30.03 50.8755 25.6059 50.8755 19.669C50.8755 13.7892 55.3568 9.30797 61.4078 9.30797C67.4589 9.30797 71.9401 13.8463 71.9401 19.669C71.9401 25.5488 67.4303 30.03 61.3793 30.03ZM61.4078 26.4051C65.2325 26.4051 67.9726 23.5508 67.9726 19.669C67.9726 15.8443 65.2325 12.9329 61.4078 12.9329C57.5545 12.9329 54.8144 15.8443 54.8144 19.669C54.8144 23.5508 57.5545 26.4051 61.4078 26.4051ZM75.9921 36.2238V14.6455H79.6456V16.5578H79.8454C80.245 15.9299 81.615 14.2744 84.3551 14.2744C88.5509 14.2744 91.4337 17.4141 91.4337 22.0951C91.4337 26.7761 88.5794 30.03 84.4693 30.03C81.8148 30.03 80.3877 28.5458 79.9024 27.718H79.7026V36.2238H75.9921ZM83.6415 26.6619C86.0391 26.6619 87.6661 24.8067 87.6661 22.1522C87.6661 19.4121 86.0391 17.6424 83.613 17.6424C81.1583 17.6424 79.617 19.6119 79.617 22.1522C79.617 24.9494 81.3296 26.6619 83.6415 26.6619ZM102.051 30.03C97.6264 30.03 94.4867 26.719 94.4867 22.2378C94.4867 17.4997 97.655 14.2744 102.051 14.2744C106.874 14.2744 109.5 17.8422 109.5 22.0666V23.2368H98.0831C98.1973 25.5202 99.7671 27.0615 102.165 27.0615C103.991 27.0615 105.39 26.2053 105.904 24.9779H109.357C108.615 28.032 105.932 30.03 102.051 30.03ZM98.1402 20.6109H105.961C105.79 18.5844 104.22 17.2428 102.051 17.2428C99.9669 17.2428 98.3685 18.7271 98.1402 20.6109ZM113.495 29.6589V14.6455H117.034V16.4722H117.234C117.834 15.359 119.318 14.2744 121.459 14.2744C124.827 14.2744 126.882 16.6434 126.882 19.8402V29.6589H123.171V20.8107C123.171 18.984 122.001 17.7566 120.288 17.7566C118.49 17.7566 117.206 19.1837 117.206 21.0676V29.6589H113.495ZM130.563 29.6589V26.2623L140.952 13.1612V12.9614H130.934V9.67903H145.69V13.0471L135.301 26.1482V26.3765H145.747V29.6589H130.563ZM155.793 30.03C151.369 30.03 148.23 26.719 148.23 22.2378C148.23 17.4997 151.398 14.2744 155.793 14.2744C160.617 14.2744 163.243 17.8422 163.243 22.0666V23.2368H151.826C151.94 25.5202 153.51 27.0615 155.907 27.0615C157.734 27.0615 159.133 26.2053 159.647 24.9779H163.1C162.358 28.032 159.675 30.03 155.793 30.03ZM151.883 20.6109H159.704C159.532 18.5844 157.963 17.2428 155.793 17.2428C153.71 17.2428 152.111 18.7271 151.883 20.6109ZM167.238 36.2238V14.6455H170.891V16.5578H171.091C171.491 15.9299 172.861 14.2744 175.601 14.2744C179.797 14.2744 182.68 17.4141 182.68 22.0951C182.68 26.7761 179.825 30.03 175.715 30.03C173.061 30.03 171.633 28.5458 171.148 27.718H170.948V36.2238H167.238ZM174.887 26.6619C177.285 26.6619 178.912 24.8067 178.912 22.1522C178.912 19.4121 177.285 17.6424 174.859 17.6424C172.404 17.6424 170.863 19.6119 170.863 22.1522C170.863 24.9494 172.575 26.6619 174.887 26.6619ZM186.674 36.2238V14.6455H190.328V16.5578H190.528C190.927 15.9299 192.297 14.2744 195.037 14.2744C199.233 14.2744 202.116 17.4141 202.116 22.0951C202.116 26.7761 199.262 30.03 195.152 30.03C192.497 30.03 191.07 28.5458 190.585 27.718H190.385V36.2238H186.674ZM194.324 26.6619C196.721 26.6619 198.348 24.8067 198.348 22.1522C198.348 19.4121 196.721 17.6424 194.295 17.6424C191.841 17.6424 190.299 19.6119 190.299 22.1522C190.299 24.9494 192.012 26.6619 194.324 26.6619ZM212.733 30.03C208.309 30.03 205.169 26.719 205.169 22.2378C205.169 17.4997 208.337 14.2744 212.733 14.2744C217.557 14.2744 220.183 17.8422 220.183 22.0666V23.2368H208.765C208.88 25.5202 210.449 27.0615 212.847 27.0615C214.674 27.0615 216.072 26.2053 216.586 24.9779H220.04C219.298 28.032 216.615 30.03 212.733 30.03ZM208.823 20.6109H216.643C216.472 18.5844 214.902 17.2428 212.733 17.2428C210.649 17.2428 209.051 18.7271 208.823 20.6109ZM227.831 29.6589C225.205 29.6589 223.721 28.0891 223.721 25.4346V8.25189H227.431V25.0921C227.431 25.9484 227.859 26.4051 228.63 26.4051H229.23V29.6589H227.831ZM234.652 12.6475C233.31 12.6475 232.368 11.8197 232.368 10.4782C232.368 9.1938 233.31 8.33752 234.652 8.33752C235.993 8.33752 236.935 9.1938 236.935 10.4782C236.935 11.8197 235.993 12.6475 234.652 12.6475ZM232.796 29.6589V14.6455H236.507V29.6589H232.796ZM241.016 29.6589V14.6455H244.555V16.4722H244.755C245.354 15.359 246.838 14.2744 248.979 14.2744C252.347 14.2744 254.402 16.6434 254.402 19.8402V29.6589H250.692V20.8107C250.692 18.984 249.521 17.7566 247.809 17.7566C246.011 17.7566 244.726 19.1837 244.726 21.0676V29.6589H241.016Z" fill="#282846"/>
<path opacity="0.9" d="M269.325 30.2504H267.125V9.62097H269.325V30.2504Z" fill="#282846"/>
<path d="M285.854 29.9744C288.187 29.9744 289.799 28.7648 290.433 27.4112H290.606V29.6H292.881V14.624H290.606V23.6096C290.606 26.0864 288.763 27.9008 286.401 27.9008C284.299 27.9008 282.542 26.3456 282.542 23.9552V14.624H280.267V24.0416C280.267 27.3536 282.369 29.9744 285.854 29.9744Z" fill="#3B3B56"/>
<path d="M298.367 36.224H300.642V27.1808H300.815C301.276 27.9584 302.946 29.9744 306.085 29.9744C310.319 29.9744 313.372 26.6912 313.372 22.0832C313.372 17.504 310.319 14.2496 305.913 14.2496C302.658 14.2496 301.103 16.4384 300.729 16.9856H300.556V14.624H298.367V36.224ZM305.826 27.9008C302.86 27.9008 300.556 25.7696 300.556 22.0832C300.556 18.944 302.514 16.2944 305.769 16.2944C308.908 16.2944 311.039 18.5696 311.039 22.0832C311.039 25.4816 308.908 27.9008 305.826 27.9008Z" fill="#3B3B56"/>
<path d="M324.574 36.5984C329.067 36.5984 331.86 34.0064 331.86 29.6V14.624H329.585V17.0432H329.412C328.952 16.2656 327.281 14.2496 324.142 14.2496C319.908 14.2496 316.856 17.5328 316.856 22.1408C316.856 26.72 319.908 29.9744 324.315 29.9744C327.569 29.9744 329.124 27.7856 329.499 27.2384H329.672V29.6C329.672 32.6528 328.088 34.6112 324.574 34.6112C322.356 34.6112 320.628 33.6896 320.225 31.9328H318.065C318.555 34.6112 320.916 36.5984 324.574 36.5984ZM324.459 27.9296C321.32 27.9296 319.188 25.6544 319.188 22.1408C319.188 18.7424 321.32 16.3232 324.401 16.3232C327.368 16.3232 329.672 18.4544 329.672 22.1408C329.672 25.28 327.713 27.9296 324.459 27.9296Z" fill="#3B3B56"/>
<path d="M337.367 29.6H339.642V21.8816C339.642 19.0304 341.169 16.8992 343.905 16.8992H345.143V14.624H343.876C341.687 14.624 340.218 16.1504 339.786 17.4176H339.613V14.624H337.367V29.6Z" fill="#3B3B56"/>
<path d="M355.243 29.9744C358.497 29.9744 360.053 27.7856 360.427 27.2384H360.6V29.6H362.789V14.624H360.513V17.0432H360.341C359.88 16.2656 358.209 14.2496 355.07 14.2496C350.837 14.2496 347.784 17.5328 347.784 22.1408C347.784 26.72 350.837 29.9744 355.243 29.9744ZM355.387 27.9296C352.248 27.9296 350.117 25.6544 350.117 22.1408C350.117 18.7424 352.248 16.3232 355.329 16.3232C358.296 16.3232 360.6 18.4544 360.6 22.1408C360.6 25.28 358.641 27.9296 355.387 27.9296Z" fill="#3B3B56"/>
<path d="M374.602 29.9744C377.857 29.9744 379.412 27.7856 379.786 27.2384H379.959V29.6H382.148V8H379.873V17.0432H379.7C379.239 16.2656 377.569 14.2496 374.43 14.2496C370.196 14.2496 367.143 17.5328 367.143 22.1408C367.143 26.72 370.196 29.9744 374.602 29.9744ZM374.746 27.9296C371.607 27.9296 369.476 25.6544 369.476 22.1408C369.476 18.7424 371.607 16.3232 374.689 16.3232C377.655 16.3232 379.959 18.4544 379.959 22.1408C379.959 25.28 378.001 27.9296 374.746 27.9296Z" fill="#3B3B56"/>
<path d="M393.991 29.9744C397.504 29.9744 400.125 27.9872 400.96 25.1936H398.599C397.907 26.9504 396.007 27.9008 394.019 27.9008C390.938 27.9008 389.008 25.9136 388.893 22.9184H401.104V21.9104C401.104 17.5904 398.397 14.2496 393.847 14.2496C389.757 14.2496 386.503 17.3312 386.503 22.112C386.503 26.6048 389.411 29.9744 393.991 29.9744ZM388.951 20.9024C389.181 18.1376 391.341 16.3232 393.847 16.3232C396.381 16.3232 398.483 17.9072 398.685 20.9024H388.951Z" fill="#3B3B56"/>
<path d="M410.702 29.9744C414.187 29.9744 416.52 28.0736 416.52 25.2512C416.52 19.0592 407.534 22.2272 407.534 18.4256C407.534 17.1296 408.744 16.208 410.616 16.208C412.603 16.208 413.668 17.1584 413.87 18.5696H416.059C415.828 15.8624 413.524 14.2496 410.76 14.2496C407.62 14.2496 405.345 15.8912 405.345 18.4256C405.345 24.3584 414.302 21.1616 414.302 25.3664C414.302 26.8928 413.064 27.9872 410.817 27.9872C408.628 27.9872 407.361 27.0368 407.102 25.2512H404.884C405.144 28.0448 407.16 29.9744 410.702 29.9744Z" fill="#3B3B56"/>
</svg>
