<svg width="2092" height="200" viewBox="0 0 2092 200" fill="none" xmlns="http://www.w3.org/2000/svg">
<path fill-rule="evenodd" clip-rule="evenodd" d="M178.886 199.918V148.052H122.733C107.462 148.052 93.3169 156.115 85.4958 169.279L67.2911 199.918H178.886Z" fill="#63D2F9"/>
<path fill-rule="evenodd" clip-rule="evenodd" d="M0.165588 0.66748V52.5334H148.069L178.887 0.66748H0.165588Z" fill="#4E5EE4"/>
<path fill-rule="evenodd" clip-rule="evenodd" d="M70.9505 81.726L0.32843 199.918H60.4968L144.948 58.518H111.723C95.011 58.518 79.5283 67.3309 70.9505 81.726Z" fill="#63B0F9"/>
<path d="M306.897 150.15C276.641 150.15 254.378 128.029 254.378 98.3449C254.378 68.9459 276.784 46.5399 307.039 46.5399C337.295 46.5399 359.701 69.2313 359.701 98.3449C359.701 127.744 337.152 150.15 306.897 150.15ZM307.039 132.025C326.163 132.025 339.863 117.754 339.863 98.3449C339.863 79.2213 326.163 64.6645 307.039 64.6645C287.773 64.6645 274.072 79.2213 274.072 98.3449C274.072 117.754 287.773 132.025 307.039 132.025ZM379.961 181.119V73.2273H398.228V82.7891H399.227C401.225 79.6494 408.075 71.372 421.776 71.372C442.755 71.372 457.169 87.0705 457.169 110.476C457.169 133.881 442.897 150.15 422.347 150.15C409.074 150.15 401.939 142.729 399.512 138.59H398.513V181.119H379.961ZM418.208 133.31C430.196 133.31 438.33 124.033 438.33 110.761C438.33 97.0605 430.196 88.2122 418.065 88.2122C405.792 88.2122 398.085 98.0595 398.085 110.761C398.085 124.747 406.648 133.31 418.208 133.31ZM510.253 150.15C488.132 150.15 472.434 133.595 472.434 111.189C472.434 87.4986 488.275 71.372 510.253 71.372C534.371 71.372 547.501 89.2112 547.501 110.333V116.184H490.416C490.986 127.601 498.836 135.308 510.824 135.308C519.957 135.308 526.95 131.026 529.519 124.89H546.787C543.077 140.16 529.662 150.15 510.253 150.15ZM490.701 103.054H529.805C528.948 92.9218 521.099 86.2142 510.253 86.2142C499.835 86.2142 491.843 93.6353 490.701 103.054ZM567.476 148.295V73.2273H585.172V82.361H586.171C589.168 76.7951 596.589 71.372 607.293 71.372C624.133 71.372 634.408 83.2172 634.408 99.2012V148.295H615.856V104.053C615.856 94.9198 610.004 88.7831 601.442 88.7831C592.451 88.7831 586.028 95.9188 586.028 105.338V148.295H567.476ZM652.813 148.295V131.312L704.761 65.8062V64.8072H654.668V48.3951H728.451V65.2353L676.504 130.741V131.883H728.737V148.295H652.813ZM778.967 150.15C756.846 150.15 741.148 133.595 741.148 111.189C741.148 87.4986 756.989 71.372 778.967 71.372C803.085 71.372 816.215 89.2112 816.215 110.333V116.184H759.129C759.7 127.601 767.55 135.308 779.538 135.308C788.671 135.308 795.664 131.026 798.233 124.89H815.501C811.791 140.16 798.376 150.15 778.967 150.15ZM759.415 103.054H798.518C797.662 92.9218 789.813 86.2142 778.967 86.2142C768.549 86.2142 760.557 93.6353 759.415 103.054ZM836.19 181.119V73.2273H854.457V82.7891H855.456C857.454 79.6494 864.304 71.372 878.005 71.372C898.983 71.372 913.398 87.0705 913.398 110.476C913.398 133.881 899.126 150.15 878.575 150.15C865.303 150.15 858.167 142.729 855.741 138.59H854.742V181.119H836.19ZM874.437 133.31C886.425 133.31 894.559 124.033 894.559 110.761C894.559 97.0605 886.425 88.2122 874.294 88.2122C862.021 88.2122 854.314 98.0595 854.314 110.761C854.314 124.747 862.877 133.31 874.437 133.31ZM933.372 181.119V73.2273H951.64V82.7891H952.639C954.637 79.6494 961.487 71.372 975.187 71.372C996.166 71.372 1010.58 87.0705 1010.58 110.476C1010.58 133.881 996.309 150.15 975.758 150.15C962.486 150.15 955.35 142.729 952.924 138.59H951.925V181.119H933.372ZM971.619 133.31C983.607 133.31 991.742 124.033 991.742 110.761C991.742 97.0605 983.607 88.2122 971.477 88.2122C959.203 88.2122 951.497 98.0595 951.497 110.761C951.497 124.747 960.06 133.31 971.619 133.31ZM1063.66 150.15C1041.54 150.15 1025.85 133.595 1025.85 111.189C1025.85 87.4986 1041.69 71.372 1063.66 71.372C1087.78 71.372 1100.91 89.2112 1100.91 110.333V116.184H1043.83C1044.4 127.601 1052.25 135.308 1064.24 135.308C1073.37 135.308 1080.36 131.026 1082.93 124.89H1100.2C1096.49 140.16 1083.07 150.15 1063.66 150.15ZM1044.11 103.054H1083.22C1082.36 92.9218 1074.51 86.2142 1063.66 86.2142C1053.25 86.2142 1045.25 93.6353 1044.11 103.054ZM1139.15 148.295C1126.02 148.295 1118.6 140.445 1118.6 127.173V41.2595H1137.16V125.46C1137.16 129.742 1139.3 132.025 1143.15 132.025H1146.15V148.295H1139.15ZM1173.26 63.2374C1166.55 63.2374 1161.84 59.0987 1161.84 52.3911C1161.84 45.969 1166.55 41.6876 1173.26 41.6876C1179.97 41.6876 1184.67 45.969 1184.67 52.3911C1184.67 59.0987 1179.97 63.2374 1173.26 63.2374ZM1163.98 148.295V73.2273H1182.53V148.295H1163.98ZM1205.08 148.295V73.2273H1222.77V82.361H1223.77C1226.77 76.7951 1234.19 71.372 1244.89 71.372C1261.74 71.372 1272.01 83.2172 1272.01 99.2012V148.295H1253.46V104.053C1253.46 94.9198 1247.61 88.7831 1239.04 88.7831C1230.05 88.7831 1223.63 95.9188 1223.63 105.338V148.295H1205.08Z" fill="#282846"/>
<path opacity="0.9" d="M1346.63 151.252H1335.63V48.1049H1346.63V151.252Z" fill="#282846"/>
<path d="M1429.27 149.872C1440.93 149.872 1449 143.824 1452.16 137.056H1453.03V148H1464.4V73.12H1453.03V118.048C1453.03 130.432 1443.81 139.504 1432 139.504C1421.49 139.504 1412.71 131.728 1412.71 119.776V73.12H1401.33V120.208C1401.33 136.768 1411.84 149.872 1429.27 149.872ZM1491.84 181.12H1503.21V135.904H1504.08C1506.38 139.792 1514.73 149.872 1530.43 149.872C1551.59 149.872 1566.86 133.456 1566.86 110.416C1566.86 87.52 1551.59 71.248 1529.56 71.248C1513.29 71.248 1505.52 82.192 1503.64 84.928H1502.78V73.12H1491.84V181.12ZM1529.13 139.504C1514.3 139.504 1502.78 128.848 1502.78 110.416C1502.78 94.72 1512.57 81.472 1528.84 81.472C1544.54 81.472 1555.2 92.848 1555.2 110.416C1555.2 127.408 1544.54 139.504 1529.13 139.504ZM1622.87 182.992C1645.33 182.992 1659.3 170.032 1659.3 148V73.12H1647.93V85.216H1647.06C1644.76 81.328 1636.41 71.248 1620.71 71.248C1599.54 71.248 1584.28 87.664 1584.28 110.704C1584.28 133.6 1599.54 149.872 1621.57 149.872C1637.85 149.872 1645.62 138.928 1647.49 136.192H1648.36V148C1648.36 163.264 1640.44 173.056 1622.87 173.056C1611.78 173.056 1603.14 168.448 1601.13 159.664H1590.33C1592.77 173.056 1604.58 182.992 1622.87 182.992ZM1622.29 139.648C1606.6 139.648 1595.94 128.272 1595.94 110.704C1595.94 93.712 1606.6 81.616 1622.01 81.616C1636.84 81.616 1648.36 92.272 1648.36 110.704C1648.36 126.4 1638.57 139.648 1622.29 139.648ZM1686.84 148H1698.21V109.408C1698.21 95.152 1705.84 84.496 1719.52 84.496H1725.72V73.12H1719.38C1708.44 73.12 1701.09 80.752 1698.93 87.088H1698.07V73.12H1686.84V148ZM1776.21 149.872C1792.49 149.872 1800.26 138.928 1802.13 136.192H1803V148H1813.94V73.12H1802.57V85.216H1801.7C1799.4 81.328 1791.05 71.248 1775.35 71.248C1754.18 71.248 1738.92 87.664 1738.92 110.704C1738.92 133.6 1754.18 149.872 1776.21 149.872ZM1776.93 139.648C1761.24 139.648 1750.58 128.272 1750.58 110.704C1750.58 93.712 1761.24 81.616 1776.65 81.616C1791.48 81.616 1803 92.272 1803 110.704C1803 126.4 1793.21 139.648 1776.93 139.648ZM1873.01 149.872C1889.28 149.872 1897.06 138.928 1898.93 136.192H1899.8V148H1910.74V40H1899.36V85.216H1898.5C1896.2 81.328 1887.84 71.248 1872.15 71.248C1850.98 71.248 1835.72 87.664 1835.72 110.704C1835.72 133.6 1850.98 149.872 1873.01 149.872ZM1873.73 139.648C1858.04 139.648 1847.38 128.272 1847.38 110.704C1847.38 93.712 1858.04 81.616 1873.44 81.616C1888.28 81.616 1899.8 92.272 1899.8 110.704C1899.8 126.4 1890 139.648 1873.73 139.648ZM1969.95 149.872C1987.52 149.872 2000.62 139.936 2004.8 125.968H1992.99C1989.54 134.752 1980.03 139.504 1970.1 139.504C1954.69 139.504 1945.04 129.568 1944.46 114.592H2005.52V109.552C2005.52 87.952 1991.98 71.248 1969.23 71.248C1948.78 71.248 1932.51 86.656 1932.51 110.56C1932.51 133.024 1947.06 149.872 1969.95 149.872ZM1944.75 104.512C1945.9 90.688 1956.7 81.616 1969.23 81.616C1981.9 81.616 1992.42 89.536 1993.42 104.512H1944.75ZM2053.51 149.872C2070.93 149.872 2082.6 140.368 2082.6 126.256C2082.6 95.296 2037.67 111.136 2037.67 92.128C2037.67 85.648 2043.72 81.04 2053.08 81.04C2063.01 81.04 2068.34 85.792 2069.35 92.848H2080.29C2079.14 79.312 2067.62 71.248 2053.8 71.248C2038.1 71.248 2026.73 79.456 2026.73 92.128C2026.73 121.792 2071.51 105.808 2071.51 126.832C2071.51 134.464 2065.32 139.936 2054.09 139.936C2043.14 139.936 2036.81 135.184 2035.51 126.256H2024.42C2025.72 140.224 2035.8 149.872 2053.51 149.872Z" fill="#3B3B56"/>
</svg>
