<?xml version="1.0" standalone="no"?>
<!DOCTYPE svg PUBLIC "-//W3C//DTD SVG 20010904//EN"
 "http://www.w3.org/TR/2001/REC-SVG-20010904/DTD/svg10.dtd">
<svg version="1.0" xmlns="http://www.w3.org/2000/svg"
 width="494.000000pt" height="455.000000pt" viewBox="0 0 494.000000 455.000000"
 preserveAspectRatio="xMidYMid meet">

<g transform="translate(0.000000,455.000000) scale(0.100000,-0.100000)"
fill="#000000" stroke="none">
<path d="M2225 4084 c-673 -91 -1243 -544 -1479 -1176 -102 -274 -138 -587
-101 -875 15 -112 51 -274 75 -337 l11 -29 40 39 c31 30 39 45 36 64 -3 14
-18 81 -33 150 -26 115 -28 142 -28 340 -1 186 2 230 22 329 127 626 567 1123
1171 1321 310 101 682 106 1003 14 621 -178 1076 -671 1220 -1324 18 -81 22
-129 22 -330 1 -258 -10 -340 -75 -542 -40 -127 -154 -353 -236 -468 -87 -122
-282 -316 -403 -402 -230 -163 -506 -271 -787 -308 -133 -18 -429 -8 -558 20
-255 54 -474 151 -685 305 -81 59 -89 63 -159 69 -40 4 -80 10 -90 13 -25 9
35 -52 119 -120 238 -193 530 -325 841 -383 120 -22 384 -29 521 -14 755 83
1387 635 1574 1373 90 354 66 769 -62 1101 -172 446 -502 803 -929 1007 -320
152 -686 210 -1030 163z"/>
<path d="M2301 3299 c0 -13 4 -33 9 -44 7 -14 8 -8 3 20 -7 46 -13 59 -12 24z"/>
<path d="M2630 3270 c-7 -28 -10 -53 -7 -56 3 -3 10 18 16 47 15 68 7 75 -9 9z"/>
<path d="M2143 3217 c4 -11 10 -30 13 -43 3 -13 10 -24 15 -24 4 0 1 17 -8 38
-16 38 -31 61 -20 29z"/>
<path d="M2303 3176 c-39 -20 -87 -54 -106 -75 -52 -57 -109 -161 -114 -207
-5 -35 -2 -44 21 -62 15 -11 49 -26 77 -33 54 -14 79 -43 79 -91 0 -14 13 -35
30 -50 33 -28 41 -76 17 -100 -7 -7 -16 -21 -20 -30 -11 -29 -64 -55 -161 -79
-50 -12 -99 -26 -109 -31 -64 -33 -105 -308 -78 -522 12 -87 43 -129 132 -174
102 -52 153 -45 432 64 l98 37 65 -22 c86 -31 214 -34 303 -7 52 16 68 26 88
57 49 74 37 158 -35 240 -16 19 -47 77 -67 129 -52 132 -81 187 -108 204 -12
7 -62 21 -111 31 -124 23 -139 30 -126 54 5 11 10 31 10 46 0 14 6 38 14 53
10 20 11 42 5 82 -4 30 -8 78 -9 105 0 28 -7 66 -14 86 -11 33 -11 38 10 62
25 29 39 92 29 135 -9 43 -52 78 -125 102 -114 37 -145 37 -227 -4z m209 -17
c29 -11 68 -32 86 -45 29 -23 32 -30 32 -79 0 -44 -4 -57 -23 -72 -19 -15 -23
-26 -21 -58 l4 -40 -39 3 c-57 6 -141 -22 -187 -62 -22 -19 -53 -36 -69 -38
-28 -3 -30 -1 -33 34 -6 69 92 147 209 167 l54 9 -51 1 c-84 2 -186 -54 -220
-121 -14 -27 -19 -29 -51 -23 -96 18 -109 46 -63 137 42 84 91 132 175 173 82
40 123 43 197 14z m36 -315 c39 -8 47 -29 22 -54 -20 -20 -20 -20 0 -59 20
-40 20 -40 0 -46 -11 -4 -29 -3 -41 0 -14 5 -27 0 -41 -15 -12 -13 -28 -20
-39 -17 -15 4 -17 2 -9 -13 11 -20 23 -25 88 -35 38 -6 41 -8 26 -20 -17 -12
-16 -13 4 -19 42 -14 21 -52 -33 -58 -23 -2 -30 -8 -31 -25 -3 -60 -32 -68
-100 -28 -49 29 -56 45 -53 122 3 51 0 58 -26 81 -39 33 -44 92 -9 92 13 0 28
-9 34 -20 15 -27 30 -25 30 4 0 61 24 85 105 106 41 11 39 11 73 4z m70 -127
c5 -24 -15 -21 -21 4 -3 13 -1 19 6 16 7 -2 13 -11 15 -20z m-55 -94 c-7 -2
-21 -2 -30 0 -10 3 -4 5 12 5 17 0 24 -2 18 -5z m-216 -198 c30 -25 59 -45 64
-45 6 0 24 7 42 16 l32 15 -25 -20 c-18 -15 -131 -76 -157 -86 -2 -1 16 -145
22 -176 6 -25 4 -27 -35 -27 -39 -1 -41 1 -71 56 l-30 57 7 -40 c4 -22 9 -51
11 -65 3 -14 7 -45 9 -70 5 -44 4 -45 -35 -63 -51 -23 -123 -92 -149 -143
l-19 -38 -18 33 c-14 28 -15 38 -4 63 13 33 90 98 152 129 21 11 37 22 35 25
-11 11 -111 -32 -158 -68 l-52 -39 5 173 c5 183 16 238 51 262 12 7 58 23 102
34 44 11 98 29 120 40 21 11 40 20 42 21 2 1 28 -19 59 -44z m373 -11 c64 -11
111 -23 121 -33 17 -17 68 -138 75 -180 4 -21 2 -23 -25 -19 -16 2 -28 1 -25
-4 3 -4 0 -8 -5 -8 -6 0 -11 5 -11 12 0 6 -9 3 -20 -7 -16 -14 -23 -15 -34 -6
-18 15 -45 3 -73 -32 -10 -13 -31 -32 -47 -42 -27 -18 -29 -18 -38 -1 -8 14
-13 15 -24 5 -8 -7 -12 -20 -9 -30 5 -16 1 -19 -22 -19 -37 0 -175 29 -188 40
-5 4 -19 9 -30 12 -16 2 -22 17 -31 78 -21 125 -25 115 69 144 77 24 166 70
181 95 9 14 12 14 136 -5z m194 -253 c3 -5 -15 -14 -39 -21 -25 -7 -48 -17
-52 -22 -3 -6 2 -8 13 -5 11 3 37 9 59 12 l40 7 -52 -26 c-29 -14 -53 -27 -53
-30 0 -7 92 25 107 37 7 5 10 14 6 21 -4 6 1 5 10 -3 9 -7 17 -18 17 -24 0
-19 -43 -57 -64 -57 -20 0 -20 0 0 16 18 14 18 15 -6 8 -14 -3 -29 -10 -35
-14 -5 -5 -57 -11 -115 -15 l-105 -6 30 26 c36 32 93 62 160 86 58 20 72 22
79 10z m-139 -11 c-3 -5 -11 -10 -16 -10 -6 0 -7 5 -4 10 3 6 11 10 16 10 6 0
7 -4 4 -10z m-340 -100 c93 -30 215 -41 315 -30 47 5 121 11 164 12 74 2 79 1
102 -25 31 -37 31 -77 -1 -105 -14 -12 -25 -29 -25 -37 0 -21 -54 -43 -122
-51 -70 -8 -146 8 -261 56 -50 21 -136 47 -191 58 -117 24 -150 44 -154 96 -3
30 1 38 20 46 28 11 73 5 153 -20z m-77 -138 c40 -6 77 -20 102 -37 72 -50 71
-50 -42 -85 -57 -17 -118 -36 -137 -42 -57 -18 -134 -15 -167 7 -17 11 -24 20
-16 23 10 3 10 7 2 17 -18 21 -4 49 46 95 50 46 52 46 212 22z"/>
<path d="M2476 3113 c4 -16 13 -39 20 -53 l14 -25 -6 30 c-9 41 -22 75 -29 75
-3 0 -2 -12 1 -27z"/>
<path d="M2441 3100 c0 -8 4 -22 9 -30 12 -18 12 -2 0 25 -6 13 -9 15 -9 5z"/>
<path d="M2596 3042 c-5 -18 -5 -36 -2 -39 7 -7 19 43 13 59 -2 7 -7 -2 -11
-20z"/>
<path d="M2220 3020 c0 -13 5 -18 15 -13 9 3 26 -3 38 -13 21 -19 21 -19 7 1
-33 45 -60 56 -60 25z"/>
<path d="M2176 2910 c12 -12 29 -20 39 -18 13 2 6 8 -21 21 l-39 18 21 -21z"/>
<path d="M2422 2899 c-24 -12 -41 -23 -39 -25 2 -3 17 2 33 11 16 8 39 15 52
15 13 0 20 4 17 10 -9 14 -14 13 -63 -11z"/>
<path d="M2183 2863 c9 -2 23 -2 30 0 6 3 -1 5 -18 5 -16 0 -22 -2 -12 -5z"/>
<path d="M2439 2780 c-24 -21 -24 -21 -2 -15 17 5 22 3 17 -8 -4 -11 3 -13 33
-8 29 5 38 11 38 26 0 29 -54 32 -86 5z"/>
<path d="M2304 2704 c3 -9 6 -18 6 -20 0 -2 4 -4 9 -4 5 0 7 9 4 20 -3 11 -10
20 -15 20 -6 0 -7 -7 -4 -16z"/>
<path d="M2360 2595 c0 -18 27 -55 47 -64 14 -7 27 -10 28 -9 1 2 -16 20 -37
41 -21 20 -38 35 -38 32z"/>
<path d="M2130 2315 c24 -24 46 -43 48 -41 7 8 -18 44 -44 65 -47 37 -49 22
-4 -24z"/>
<path d="M2050 2335 c33 -19 50 -18 26 0 -11 8 -27 15 -35 15 -10 -1 -7 -6 9
-15z"/>
<path d="M2083 2065 c-18 -8 -33 -16 -33 -19 0 -4 31 4 100 27 8 3 4 6 -10 6
-14 0 -40 -6 -57 -14z"/>
<path d="M2800 2343 c0 -21 3 -24 9 -14 5 8 7 20 4 28 -8 21 -13 15 -13 -14z"/>
<path d="M2823 2280 c-6 -30 -9 -57 -7 -59 8 -8 25 55 22 83 -2 26 -5 22 -15
-24z"/>
<path d="M2597 2293 c-4 -3 -7 -15 -7 -25 0 -26 24 -17 28 10 3 21 -8 29 -21
15z"/>
<path d="M2353 2264 c-8 -20 13 -42 27 -28 12 12 3 44 -11 44 -5 0 -12 -7 -16
-16z"/>
<path d="M2661 2254 c0 -11 3 -14 6 -6 3 7 2 16 -1 19 -3 4 -6 -2 -5 -13z"/>
<path d="M2867 2223 c-4 -3 -7 -11 -7 -17 0 -6 5 -5 12 2 6 6 9 14 7 17 -3 3
-9 2 -12 -2z"/>
<path d="M2755 1885 c81 -20 180 -24 196 -7 10 10 -3 12 -66 12 -44 0 -105 2
-135 5 l-55 5 60 -15z"/>
<path d="M2272 1805 c-61 -12 -92 -25 -59 -25 9 0 46 7 84 16 111 26 93 33
-25 9z"/>
<path d="M2771 3159 c-12 -28 -20 -53 -18 -55 2 -3 14 19 26 47 12 29 20 54
17 56 -2 2 -13 -19 -25 -48z"/>
<path d="M1970 3176 c0 -9 79 -126 85 -126 6 0 -40 74 -66 109 -11 13 -19 21
-19 17z"/>
<path d="M2920 3105 c-27 -41 -50 -77 -50 -81 0 -8 46 55 84 114 44 71 20 47
-34 -33z"/>
<path d="M1970 2928 c24 -27 45 -48 47 -48 8 0 0 9 -44 50 l-48 45 45 -47z"/>
<path d="M2955 2919 c-22 -23 -31 -37 -20 -31 26 13 82 72 69 72 -6 0 -28 -19
-49 -41z"/>
<path d="M1835 2848 c37 -29 115 -79 115 -74 0 6 -93 72 -121 85 -19 10 -18 8
6 -11z"/>
<path d="M3063 2827 c-67 -46 -97 -73 -48 -42 70 43 129 85 120 85 -6 0 -38
-20 -72 -43z"/>
<path d="M3182 2708 c-29 -12 -51 -22 -49 -24 6 -6 96 27 103 37 6 11 10 12
-54 -13z"/>
<path d="M1755 2701 c22 -10 51 -22 65 -25 14 -3 7 2 -15 13 -22 10 -51 21
-65 24 -14 4 -7 -2 15 -12z"/>
<path d="M1920 2646 c0 -3 9 -10 20 -16 11 -6 20 -8 20 -6 0 3 -9 10 -20 16
-11 6 -20 8 -20 6z"/>
<path d="M2970 2630 c-18 -12 -2 -12 25 0 13 6 15 9 5 9 -8 0 -22 -4 -30 -9z"/>
<path d="M1675 2554 c39 -7 79 -13 90 -12 11 0 -9 6 -45 14 -36 7 -76 13 -90
12 -14 0 7 -6 45 -14z"/>
<path d="M3293 2563 c9 -2 23 -2 30 0 6 3 -1 5 -18 5 -16 0 -22 -2 -12 -5z"/>
<path d="M3190 2550 c-34 -7 -34 -7 -5 -8 17 0 44 4 60 8 27 7 27 8 5 8 -14
-1 -41 -4 -60 -8z"/>
<path d="M2875 2500 c-27 -7 -27 -8 -5 -8 14 0 36 4 50 8 20 6 21 8 5 8 -11 0
-33 -4 -50 -8z"/>
<path d="M1738 2393 c17 -2 47 -2 65 0 17 2 3 4 -33 4 -36 0 -50 -2 -32 -4z"/>
<path d="M3138 2393 c17 -2 47 -2 65 0 17 2 3 4 -33 4 -36 0 -50 -2 -32 -4z"/>
<path d="M1650 2235 c-73 -17 -32 -18 50 -1 36 8 52 14 35 14 -16 0 -55 -6
-85 -13z"/>
<path d="M3210 2241 c14 -4 50 -11 80 -14 36 -4 46 -3 28 3 -15 4 -51 11 -80
14 -34 3 -44 3 -28 -3z"/>
<path d="M1765 2099 c-54 -22 -75 -36 -35 -24 37 12 107 44 95 44 -5 0 -32 -9
-60 -20z"/>
<path d="M3164 2095 c33 -14 61 -23 64 -20 3 2 -4 8 -14 11 -10 4 -34 13 -53
20 -18 8 -39 14 -45 14 -6 -1 16 -12 48 -25z"/>
<path d="M1508 1901 c-24 -21 -41 -27 -63 -25 -56 7 -267 -17 -364 -42 -221
-55 -368 -171 -400 -315 -25 -111 59 -209 180 -209 41 0 122 46 148 85 24 36
34 102 16 107 -5 2 -12 -10 -15 -27 -10 -45 -27 -71 -66 -102 -29 -22 -47 -27
-88 -27 -63 0 -101 23 -116 70 -41 124 100 291 302 360 105 35 255 64 337 64
l72 0 -42 -61 c-54 -80 -128 -236 -178 -376 -56 -158 -100 -260 -134 -315 -16
-27 -30 -48 -31 -48 -2 0 -43 14 -92 31 -97 34 -191 41 -235 19 -69 -36 -94
-93 -64 -150 46 -89 245 -80 372 17 l47 36 65 -13 c105 -19 253 -24 323 -11
269 52 417 284 265 418 -32 28 -130 73 -160 73 -7 0 25 18 70 40 89 44 123 78
143 146 30 102 -52 182 -220 215 l-61 12 21 22 c41 43 16 49 -32 6z m64 -72
c102 -22 158 -68 158 -129 0 -34 -29 -93 -63 -128 -48 -51 -100 -73 -183 -79
-78 -6 -121 -25 -95 -42 7 -5 47 -14 89 -21 117 -19 164 -36 201 -74 63 -65
53 -158 -26 -246 -82 -92 -193 -128 -354 -117 -49 4 -109 12 -133 18 l-45 11
34 47 c48 67 105 187 196 407 86 211 155 364 163 364 3 0 29 -5 58 -11z m-613
-791 c36 -11 69 -23 73 -27 14 -12 -102 -80 -157 -91 -43 -9 -60 -8 -89 4 -67
28 -74 104 -13 132 38 16 90 12 186 -18z"/>
<path d="M1176 1069 c-9 -13 -16 -27 -16 -31 0 -8 88 -23 95 -16 3 2 -10 19
-29 37 l-34 33 -16 -23z"/>
<path d="M3522 1824 c-32 -22 -28 -77 6 -82 50 -7 85 65 43 88 -25 13 -22 13
-49 -6z"/>
<path d="M3779 1731 c-57 -36 -99 -99 -138 -207 -52 -143 -85 -194 -127 -194
-37 0 -36 37 6 194 22 82 40 152 40 157 0 10 -50 12 -74 3 -10 -4 -14 -14 -11
-28 8 -29 -37 -202 -68 -262 -29 -56 -62 -94 -82 -94 -37 0 -26 90 32 253 19
53 33 101 31 107 -9 27 -138 -73 -211 -165 -48 -60 -44 -38 11 76 l37 75 -35
-3 c-21 -1 -42 -11 -52 -23 -14 -18 -142 -390 -136 -395 2 -1 18 2 36 7 22 6
37 18 44 36 39 97 85 184 120 229 37 48 72 73 85 59 3 -3 -7 -36 -22 -73 -50
-125 -34 -213 39 -213 39 0 68 20 96 66 l22 35 15 -28 c18 -35 30 -43 69 -43
38 0 74 31 104 91 l22 43 13 -31 c18 -42 61 -73 102 -73 44 0 106 32 132 68
37 52 83 192 63 192 -5 0 -15 -19 -22 -42 -32 -110 -95 -188 -150 -188 -44 0
-60 23 -60 89 l0 58 38 11 c73 22 161 122 162 185 0 24 -36 57 -63 57 -13 0
-43 -13 -68 -29z m91 -39 c0 -49 -38 -104 -96 -138 -25 -14 -47 -24 -50 -21
-9 9 54 131 86 165 40 44 60 42 60 -6z"/>
<path d="M2981 1631 c-35 -35 -46 -93 -28 -147 14 -44 14 -52 -4 -108 -33
-108 -98 -176 -136 -144 -35 29 25 298 80 357 l22 23 -45 -7 c-25 -4 -50 -12
-56 -18 -7 -7 -26 -57 -44 -112 -58 -177 -110 -275 -147 -275 -21 0 -32 42
-23 91 12 62 66 215 90 255 l19 34 -24 0 c-55 0 -71 -15 -100 -97 -16 -43 -31
-82 -35 -88 -4 -5 -17 -40 -30 -77 -25 -72 -67 -132 -98 -140 -10 -3 -28 -1
-40 3 l-22 8 30 49 c86 141 71 302 -28 302 -80 0 -148 -76 -202 -225 -54 -150
-89 -204 -119 -185 -20 12 -8 95 29 204 37 111 39 141 8 132 -13 -3 -48 -9
-77 -13 l-55 -6 22 28 c37 46 22 125 -23 125 -21 0 -25 -12 -36 -111 -11 -101
-47 -235 -85 -318 -28 -61 -30 -79 -10 -62 21 17 71 143 91 229 l18 72 37 0
c59 0 65 -17 35 -92 -15 -34 -29 -91 -32 -124 -5 -54 -3 -64 16 -83 41 -41 92
-21 141 56 l29 45 15 -35 c25 -61 78 -74 139 -33 31 21 40 23 70 14 46 -14 94
9 130 64 20 32 27 37 27 21 0 -33 38 -73 69 -73 40 0 77 33 110 98 l28 55 6
-42 c7 -57 31 -81 78 -81 89 0 156 115 195 333 7 45 14 90 14 100 0 23 -25 22
-49 -2z m-586 -135 c25 -18 25 -101 0 -175 -16 -50 -18 -51 -35 -36 -41 37
-78 -23 -49 -77 10 -18 8 -25 -11 -40 -113 -91 -99 180 15 299 46 47 52 50 80
29z"/>
<path d="M811 1605 c-17 -20 -31 -45 -31 -56 0 -35 78 -179 98 -179 21 0 85
38 80 48 -30 58 -98 204 -98 212 0 19 -18 10 -49 -25z"/>
<path d="M953 1323 c-24 -13 -43 -28 -43 -32 0 -10 88 -134 128 -181 l29 -34
27 51 26 52 -61 85 c-34 47 -62 86 -63 85 0 -1 -20 -12 -43 -26z"/>
</g>
</svg>
