<svg width="60" height="40" viewBox="0 0 60 40" fill="none" xmlns="http://www.w3.org/2000/svg">
<g clip-path="url(#clip0)">
<path d="M44.9191 36.5474C44.8882 36.5165 44.842 36.4857 44.8111 36.4548C44.5185 36.1614 43.8559 35.868 42.8853 35.6055C41.5292 35.2349 39.5881 34.9106 37.1996 34.6481C36.1058 34.5246 35.0273 34.8798 34.2106 35.6209C32.7315 36.9799 30.7901 37.7363 28.7871 37.7363H16.1989C14.1959 37.7363 12.2545 36.9799 10.7754 35.6209C9.95879 34.8798 8.88023 34.5246 7.7863 34.6636C5.39808 34.9261 3.4567 35.2503 2.10083 35.6209C1.14554 35.8834 0.390564 36.254 0.0824079 36.5474C0.00536916 36.4393 -0.0100387 36.3004 0.00536917 36.1768V33.9687C0.00536917 33.5672 0.683311 33.1812 1.88512 32.826V30.062C1.88512 21.353 7.33946 13.5705 15.521 10.6212L15.598 10.1116C15.6905 9.5094 16.1219 9.01528 16.7074 8.84542C20.5131 7.71819 24.5653 7.71819 28.3711 8.84542C28.9566 9.01528 29.3881 9.5094 29.4804 10.1116L29.5728 10.6675C37.7081 13.6323 43.1162 21.3839 43.1162 30.062L43.0856 32.8106C44.3182 33.1657 44.9961 33.5518 44.9961 33.9687V36.1768C45.0114 36.3004 44.9805 36.4393 44.9191 36.5474Z" fill="#FFF100"/>
<path d="M1.88522 32.8261V30.062C1.88522 21.3531 7.33957 13.5705 15.5365 10.6212C12.5782 15.4235 10.7909 22.3259 10.7909 30.0003C10.7909 30.5098 10.8063 31.0194 10.8217 31.529C6.87735 31.8378 3.74957 32.2856 1.88522 32.8261Z" fill="url(#paint0_linear)"/>
<path d="M43.07 32.8106C42.1609 32.5636 41.2365 32.3628 40.2966 32.2238C40.3274 31.4981 40.3583 30.7569 40.3583 30.0003C40.3583 25.2443 39.6495 20.7817 38.4013 16.9213C41.4521 20.6118 43.1162 25.2597 43.1009 30.062L43.07 32.8106Z" fill="url(#paint1_linear)"/>
<path d="M44.8111 36.4548C44.8417 36.4856 44.8726 36.5165 44.9188 36.5474C43.9635 38.0145 34.2877 39.5585 22.5006 39.5585C10.7137 39.5585 1.03759 38.0145 0.0823059 36.5474C0.390462 36.254 1.14544 35.8834 2.10072 35.6209C3.4566 35.2503 5.39797 34.9261 7.78619 34.6635C8.88013 34.54 9.95868 34.8952 10.7753 35.6364C12.2544 36.9951 14.1958 37.7518 16.1988 37.7518H28.787C30.7901 37.7518 32.7312 36.9951 34.2106 35.6364C35.027 34.8952 36.1055 34.54 37.1996 34.6635C39.5878 34.9261 41.5292 35.2503 42.885 35.6209C43.8559 35.8834 44.5029 36.1614 44.8111 36.4548Z" fill="url(#paint2_radial)"/>
<path d="M22.5007 14.4816V25.723L17.6781 22.7119L22.5007 14.4816Z" fill="#0A0A0A"/>
<path d="M27.3232 22.7119L22.5006 25.723V14.4816L27.3232 22.7119Z" fill="#4B4D4D"/>
<path d="M27.3232 24.3487C27.3232 24.3487 22.593 31.1429 22.5006 31.2664V27.3443L27.3232 24.3487Z" fill="#4B4D4D"/>
<path d="M22.5007 27.3443V31.2664L17.6781 24.3487L22.5007 27.3443Z" fill="#0A0A0A"/>
</g>
<defs>
<linearGradient id="paint0_linear" x1="8.66574" y1="32.8649" x2="8.66574" y2="10.6632" gradientUnits="userSpaceOnUse">
<stop stop-color="#EDCF00"/>
<stop offset="0.33" stop-color="#F0D500"/>
<stop offset="0.77" stop-color="#F9E500"/>
<stop offset="1" stop-color="#FFF100"/>
</linearGradient>
<linearGradient id="paint1_linear" x1="40.7168" y1="33.0271" x2="40.7168" y2="16.9695" gradientUnits="userSpaceOnUse">
<stop stop-color="#EDCF00"/>
<stop offset="0.59" stop-color="#F7E100"/>
<stop offset="1" stop-color="#FFF100"/>
</linearGradient>
<radialGradient id="paint2_radial" cx="0" cy="0" r="1" gradientUnits="userSpaceOnUse" gradientTransform="translate(22.5579 48.0424) scale(16.7729 16.8096)">
<stop stop-color="#FFF100"/>
<stop offset="0.23" stop-color="#F9E500"/>
<stop offset="0.67" stop-color="#F0D500"/>
<stop offset="1" stop-color="#EDCF00"/>
</radialGradient>
<clipPath id="clip0">
<rect width="60" height="40" fill="white"/>
</clipPath>
</defs>
</svg>
