<svg id="a1186158-0488-424f-8084-ae0adaacdee4" data-name="txt" xmlns="http://www.w3.org/2000/svg" xmlns:xlink="http://www.w3.org/1999/xlink" viewBox="0 0 394.45 395.93"><defs><style>.ea0f2981-d3e7-41e2-8159-e12859e5c112{fill:#fff100;}.b20bb168-fd78-497b-8b3e-9e011b2fba22{fill:url(#afa50760-6928-43d1-9d0c-6d394717e68c);}.b20b366c-c091-45d0-8132-b8cc8d9064cc{fill:url(#e7e55e4d-0782-4c6c-adce-04021a93d377);}.b2b26828-8611-4c24-8e7c-30d4f8e813bf{fill:url(#a1291ad5-076d-4a9b-a8df-34e91c1811fb);}.a8715c47-c5e1-4023-9511-db57a031c855{fill:#0a0a0a;}.b378a86b-a930-4479-86f6-4524603be16c{fill:#4b4d4d;}</style><linearGradient id="afa50760-6928-43d1-9d0c-6d394717e68c" x1="56.49" y1="160.78" x2="56.49" y2="17" gradientUnits="userSpaceOnUse"><stop offset="0" stop-color="#edcf00"/><stop offset="0.33" stop-color="#f0d500"/><stop offset="0.77" stop-color="#f9e500"/><stop offset="1" stop-color="#fff100"/></linearGradient><linearGradient id="e7e55e4d-0782-4c6c-adce-04021a93d377" x1="264.51" y1="161.83" x2="264.51" y2="57.84" gradientUnits="userSpaceOnUse"><stop offset="0" stop-color="#edcf00"/><stop offset="0.59" stop-color="#f7e100"/><stop offset="1" stop-color="#fff100"/></linearGradient><radialGradient id="a1291ad5-076d-4a9b-a8df-34e91c1811fb" cx="146.66" cy="259.07" r="108.86" gradientUnits="userSpaceOnUse"><stop offset="0" stop-color="#fff100"/><stop offset="0.23" stop-color="#f9e500"/><stop offset="0.67" stop-color="#f0d500"/><stop offset="1" stop-color="#edcf00"/></radialGradient><symbol id="f2725a89-cd96-4a0d-bc31-31cd625566bf" data-name="Hardhat-color-Isotype" viewBox="0 0 292 204.4"><path class="ea0f2981-d3e7-41e2-8159-e12859e5c112" d="M292,182.52V168.21c0-2.66-4.43-5.19-12.39-7.48l.19-17.81A133.8,133.8,0,0,0,191.9,17.24l-.57-3.57a10.24,10.24,0,0,0-7.18-8.23,134.33,134.33,0,0,0-75.68,0,10.24,10.24,0,0,0-7.17,8.23L100.76,17A133.82,133.82,0,0,0,12.22,142.92v17.86C4.37,163.06,0,165.57,0,168.21v14.31a3.52,3.52,0,0,0,.51,2.41c2-1.92,6.93-4.34,13.15-6,8.77-2.38,21.42-4.49,36.91-6.18A24.66,24.66,0,0,1,69.94,179a52.13,52.13,0,0,0,35.18,13.67h81.75A52.09,52.09,0,0,0,222.05,179h0a24.68,24.68,0,0,1,19.37-6.32c15.49,1.69,28.14,3.8,36.91,6.18,6.25,1.69,10.53,3.53,12.47,5.46.21.21.46.39.67.59A3.57,3.57,0,0,0,292,182.52Z"/><path class="b20bb168-fd78-497b-8b3e-9e011b2fba22" d="M70.13,152.39c-.1-3.28-.17-6.57-.17-9.89C70,92.76,81.62,48.15,100.77,17A133.82,133.82,0,0,0,12.22,142.92v17.86h0C24.3,157.29,44.65,154.36,70.13,152.39Z"/><path class="b20b366c-c091-45d0-8132-b8cc8d9064cc" d="M279.78,142.92a133.29,133.29,0,0,0-30.53-85.08c8.06,24.94,12.66,53.84,12.66,84.66,0,4.85-.13,9.64-.35,14.39a165.4,165.4,0,0,1,18,3.84Z"/><path class="b2b26828-8611-4c24-8e7c-30d4f8e813bf" d="M278.33,178.9c-8.77-2.38-21.42-4.49-36.91-6.18A24.68,24.68,0,0,0,222.05,179h0a52.09,52.09,0,0,1-35.18,13.67H105.12A52.13,52.13,0,0,1,69.94,179a24.66,24.66,0,0,0-19.36-6.32c-15.49,1.69-28.14,3.8-36.91,6.18-6.22,1.68-11.19,4.11-13.15,6,6.2,9.5,69,19.47,145.48,19.47s139.23-10,145.47-19.46c-.22-.19-.46-.38-.67-.58C288.86,182.43,284.58,180.59,278.33,178.9Z"/><polygon class="a8715c47-c5e1-4023-9511-db57a031c855" points="145.99 42.01 114.69 95.33 145.99 114.77 146 114.76 146 42.03 145.99 42.01"/><polygon class="b378a86b-a930-4479-86f6-4524603be16c" points="146 42.03 146 114.76 177.31 95.35 146 42.03"/><path class="b378a86b-a930-4479-86f6-4524603be16c" d="M146,125.32v25.36c.59-.84,31.32-44.8,31.32-44.82Z"/><path class="a8715c47-c5e1-4023-9511-db57a031c855" d="M146,125.33,114.68,105.9,146,150.7V125.32Z"/></symbol><symbol id="a6eb6c2d-e035-4ab2-bb19-8be78e9e949e" data-name="Hardhat-color-logotype-vertical" viewBox="0 0 292.29 293.51"><g id="f8dff265-52a9-4336-bede-99c2e2093eb7" data-name="logo1-tipografia"><path class="a8715c47-c5e1-4023-9511-db57a031c855" d="M34.11,292.94V270.26H8.85v22.68H0V241.46H8.85V263.1H34.11V241.46H43v51.48Z"/><path class="a8715c47-c5e1-4023-9511-db57a031c855" d="M87,292.94l-1.77-6.19c-1.93,3.22-7.64,6.76-16.17,6.76-8.85,0-15.93-3.94-15.93-12.63,0-7.56,5.39-11,17.14-12.15l13-1.29C83,261.49,80.85,258,72.56,258c-7.64,0-9.73,3.06-9.73,8.21l-8.37.08c0-8.53,3.54-15.13,18-15.13,16.81,0,19.23,7.24,19.23,18.35v23.4Zm-3.78-19-11.67,1.29c-7.16.8-9.57,2.33-9.57,5.55,0,3.78,3.22,5.95,9.25,5.95,7.56,0,12-4.34,12-11.5Z"/><path class="a8715c47-c5e1-4023-9511-db57a031c855" d="M120.34,258.67c-8.6,0-10.29,4.75-10.29,11.43v22.84h-8.61V251.76H106l2,5.71c1.28-2.74,5.22-6.28,13.27-6.28h1.37v7.65C121.87,258.84,121.07,258.67,120.34,258.67Z"/><path class="a8715c47-c5e1-4023-9511-db57a031c855" d="M161.69,292.94l-1.93-5.87c-1.45,2.82-6,6.44-15.77,6.44-13.59,0-17.61-9.9-17.61-21.16s3.86-21.16,17.53-21.16c8.13,0,12.23,2.9,14,5.63V236.07h8.45v56.87Zm-15.2-34.51c-9.41,0-11.34,5.63-11.34,13.92s1.93,14.08,11.26,14.08c9.57,0,11.58-5.63,11.58-14.08C158,264.39,156.3,258.43,146.49,258.43Z"/><path class="a8715c47-c5e1-4023-9511-db57a031c855" d="M206.34,292.94V269.86c0-7.73-1.29-11.43-10.06-11.43s-10.54,3.62-10.54,11.43l-.16,23.08h-8.44V236.07h8.44v20.84c1.61-3,5.23-5.72,13.12-5.72,13.43,0,16.17,7.65,16.17,19.47v22.28Z"/><path class="a8715c47-c5e1-4023-9511-db57a031c855" d="M257.18,292.94l-1.77-6.19c-1.93,3.22-7.64,6.76-16.17,6.76-8.85,0-15.93-3.94-15.93-12.63,0-7.56,5.39-11,17.14-12.15l13-1.29c-.24-5.95-2.42-9.41-10.7-9.41-7.64,0-9.74,3.06-9.74,8.21l-8.36.08c0-8.53,3.54-15.13,18-15.13,16.81,0,19.22,7.24,19.22,18.35v23.4Zm-3.78-19-11.67,1.29c-7.16.8-9.57,2.33-9.57,5.55,0,3.78,3.22,5.95,9.25,5.95,7.56,0,12-4.34,12-11.5Z"/><path class="a8715c47-c5e1-4023-9511-db57a031c855" d="M281.55,258.67v22.45c0,3.86,1.61,5.63,10.54,5.23v6.92c-13.59.8-19.3-2.42-19.3-12.15V258.67h-5.88v-5.14l5.88-1.77v-10.3h8.52v10.3h10.78v6.91Z"/></g><use width="292" height="204.4" transform="translate(0.28)" xlink:href="#f2725a89-cd96-4a0d-bc31-31cd625566bf"/></symbol></defs><use width="292.28" height="293.51" transform="translate(50.94 51.49)" xlink:href="#a6eb6c2d-e035-4ab2-bb19-8be78e9e949e"/></svg>