<svg width="60" height="40" viewBox="0 0 60 40" fill="none" xmlns="http://www.w3.org/2000/svg">
<g clip-path="url(#clip0)">
<path d="M44.9191 32.5474C44.8882 32.5165 44.842 32.4857 44.8111 32.4548C44.5185 32.1614 43.8559 31.868 42.8853 31.6055C41.5292 31.2349 39.5881 30.9106 37.1996 30.6481C36.1058 30.5246 35.0273 30.8798 34.2106 31.6209C32.7315 32.9799 30.7901 33.7363 28.7871 33.7363H16.1989C14.1959 33.7363 12.2545 32.9799 10.7754 31.6209C9.95878 30.8798 8.88023 30.5246 7.7863 30.6636C5.39808 30.9261 3.4567 31.2503 2.10083 31.6209C1.14554 31.8834 0.390564 32.254 0.0824079 32.5474C0.00536916 32.4393 -0.0100387 32.3004 0.00536917 32.1768V29.9687C0.00536917 29.5672 0.683311 29.1812 1.88512 28.826V26.062C1.88512 17.353 7.33946 9.57051 15.521 6.62119L15.598 6.11162C15.6905 5.5094 16.1219 5.01528 16.7074 4.84542C20.5131 3.71819 24.5653 3.71819 28.3711 4.84542C28.9566 5.01528 29.3881 5.5094 29.4804 6.11162L29.5728 6.66752C37.7081 9.63227 43.1162 17.3839 43.1162 26.062L43.0856 28.8106C44.3182 29.1657 44.9961 29.5518 44.9961 29.9687V32.1768C45.0114 32.3004 44.9805 32.4393 44.9191 32.5474Z" fill="#FFF100"/>
<path d="M1.88522 28.8261V26.062C1.88522 17.3531 7.33957 9.57054 15.5365 6.62122C12.5782 11.4235 10.7909 18.3259 10.7909 26.0003C10.7909 26.5099 10.8063 27.0194 10.8217 27.529C6.87735 27.8378 3.74957 28.2856 1.88522 28.8261Z" fill="url(#paint0_linear)"/>
<path d="M43.07 28.8106C42.1609 28.5636 41.2365 28.3628 40.2966 28.2238C40.3274 27.4981 40.3583 26.7569 40.3583 26.0003C40.3583 21.2443 39.6495 16.7817 38.4013 12.9213C41.4521 16.6118 43.1162 21.2597 43.1009 26.062L43.07 28.8106Z" fill="url(#paint1_linear)"/>
<path d="M44.8111 32.4548C44.8417 32.4856 44.8726 32.5165 44.9188 32.5474C43.9635 34.0145 34.2877 35.5585 22.5006 35.5585C10.7137 35.5585 1.03759 34.0145 0.0823059 32.5474C0.390462 32.254 1.14544 31.8834 2.10072 31.6209C3.4566 31.2503 5.39797 30.9261 7.78619 30.6635C8.88013 30.54 9.95868 30.8952 10.7753 31.6364C12.2544 32.9951 14.1958 33.7518 16.1988 33.7518H28.787C30.7901 33.7518 32.7312 32.9951 34.2106 31.6364C35.027 30.8952 36.1055 30.54 37.1996 30.6635C39.5878 30.9261 41.5292 31.2503 42.885 31.6209C43.8559 31.8834 44.5029 32.1614 44.8111 32.4548Z" fill="url(#paint2_radial)"/>
<path d="M22.5007 10.4816V21.723L17.6781 18.7119L22.5007 10.4816Z" fill="#0A0A0A"/>
<path d="M27.3232 18.7119L22.5006 21.723V10.4816L27.3232 18.7119Z" fill="#4B4D4D"/>
<path d="M27.3232 20.3487C27.3232 20.3487 22.593 27.1429 22.5006 27.2664V23.3443L27.3232 20.3487Z" fill="#4B4D4D"/>
<path d="M22.5007 23.3443V27.2664L17.6781 20.3487L22.5007 23.3443Z" fill="#0A0A0A"/>
</g>
<defs>
<linearGradient id="paint0_linear" x1="8.66574" y1="28.8649" x2="8.66574" y2="6.66322" gradientUnits="userSpaceOnUse">
<stop stop-color="#EDCF00"/>
<stop offset="0.33" stop-color="#F0D500"/>
<stop offset="0.77" stop-color="#F9E500"/>
<stop offset="1" stop-color="#FFF100"/>
</linearGradient>
<linearGradient id="paint1_linear" x1="40.7168" y1="29.0271" x2="40.7168" y2="12.9695" gradientUnits="userSpaceOnUse">
<stop stop-color="#EDCF00"/>
<stop offset="0.59" stop-color="#F7E100"/>
<stop offset="1" stop-color="#FFF100"/>
</linearGradient>
<radialGradient id="paint2_radial" cx="0" cy="0" r="1" gradientUnits="userSpaceOnUse" gradientTransform="translate(22.5579 44.0424) scale(16.7729 16.8096)">
<stop stop-color="#FFF100"/>
<stop offset="0.23" stop-color="#F9E500"/>
<stop offset="0.67" stop-color="#F0D500"/>
<stop offset="1" stop-color="#EDCF00"/>
</radialGradient>
<clipPath id="clip0">
<rect width="60" height="40" fill="white"/>
</clipPath>
</defs>
</svg>
