<?xml version="1.0" encoding="UTF-8"?>
<svg width="1273px" height="200px" viewBox="0 0 1273 200" version="1.1" xmlns="http://www.w3.org/2000/svg" xmlns:xlink="http://www.w3.org/1999/xlink">
    <!-- Generator: Sketch 55 (78076) - https://sketchapp.com -->
    <title>OZ_logo_color</title>
    <desc>Created with Sketch.</desc>
    <g id="exports" stroke="none" stroke-width="1" fill="none" fill-rule="evenodd">
        <g id="logo/-color">
            <g id="logo_OZ">
                <path d="M306.932846,149.066656 C276.673984,149.066656 254.40803,127.105643 254.40803,97.6353794 C254.40803,68.448484 276.816715,46.2041025 307.075576,46.2041025 C337.334437,46.2041025 359.743122,68.7318519 359.743122,97.6353794 C359.743122,126.822275 337.191707,149.066656 306.932846,149.066656 Z M307.075576,131.072794 C326.20146,131.072794 339.903586,116.904398 339.903586,97.6353794 C339.903586,78.649729 326.20146,64.1979652 307.075576,64.1979652 C287.806962,64.1979652 274.104836,78.649729 274.104836,97.6353794 C274.104836,116.904398 287.806962,131.072794 307.075576,131.072794 Z M380.005577,179.812075 L380.005577,72.6990028 L398.275078,72.6990028 L398.275078,82.191828 L399.274192,82.191828 C401.272418,79.0747809 408.123481,70.8571113 421.825607,70.8571113 C442.806987,70.8571113 457.222765,86.4423467 457.222765,109.678516 C457.222765,132.914685 442.949718,149.066656 422.396529,149.066656 C409.122594,149.066656 401.986071,141.699091 399.559652,137.590256 L398.560539,137.590256 L398.560539,179.812075 L380.005577,179.812075 Z M418.257345,132.347949 C430.246705,132.347949 438.382342,123.138492 438.382342,109.961884 C438.382342,96.3602238 430.246705,87.5758184 418.114615,87.5758184 C405.839793,87.5758184 398.132348,97.3520115 398.132348,109.961884 C398.132348,123.846912 406.696176,132.347949 418.257345,132.347949 Z M510.31323,149.066656 C488.190006,149.066656 472.489654,132.631317 472.489654,110.386936 C472.489654,86.8673986 488.332737,70.8571113 510.31323,70.8571113 C534.434681,70.8571113 547.565885,88.5676061 547.565885,109.536832 L547.565885,115.345874 L490.473694,115.345874 C491.044616,126.680591 498.894792,134.331525 510.884152,134.331525 C520.018903,134.331525 527.012696,130.081006 529.581845,123.988596 L546.852232,123.988596 C543.14124,139.148779 529.724575,149.066656 510.31323,149.066656 Z M490.759155,102.31095 L529.867305,102.31095 C529.010923,92.251389 521.160746,85.592243 510.31323,85.592243 C499.893905,85.592243 491.900998,92.9598088 490.759155,102.31095 Z M567.542879,147.224765 L567.542879,72.6990028 L585.241458,72.6990028 L585.241458,81.7667761 L586.240571,81.7667761 C589.237911,76.2411017 596.659896,70.8571113 607.364682,70.8571113 C624.206878,70.8571113 634.483473,82.6168798 634.483473,98.4854832 L634.483473,147.224765 L615.92851,147.224765 L615.92851,103.302738 C615.92851,94.2349644 610.076561,88.1425542 601.512732,88.1425542 C592.520712,88.1425542 586.097841,95.2267521 586.097841,104.577893 L586.097841,147.224765 L567.542879,147.224765 Z M652.890431,147.224765 L652.890431,130.364374 L704.844325,65.3314369 L704.844325,64.3396492 L654.745927,64.3396492 L654.745927,48.045994 L728.537584,48.045994 L728.537584,64.7647011 L676.58369,129.797638 L676.58369,130.93111 L728.823045,130.93111 L728.823045,147.224765 L652.890431,147.224765 Z M779.0589,149.066656 C756.935676,149.066656 741.235324,132.631317 741.235324,110.386936 C741.235324,86.8673986 757.078407,70.8571113 779.0589,70.8571113 C803.180351,70.8571113 816.311555,88.5676061 816.311555,109.536832 L816.311555,115.345874 L759.219364,115.345874 C759.790286,126.680591 767.640462,134.331525 779.629822,134.331525 C788.764573,134.331525 795.758366,130.081006 798.327515,123.988596 L815.597903,123.988596 C811.88691,139.148779 798.470245,149.066656 779.0589,149.066656 Z M759.504825,102.31095 L798.612976,102.31095 C797.756593,92.251389 789.906417,85.592243 779.0589,85.592243 C768.639575,85.592243 760.646669,92.9598088 759.504825,102.31095 Z M836.288549,179.812075 L836.288549,72.6990028 L854.55805,72.6990028 L854.55805,82.191828 L855.557163,82.191828 C857.55539,79.0747809 864.406453,70.8571113 878.108579,70.8571113 C899.089959,70.8571113 913.505737,86.4423467 913.505737,109.678516 C913.505737,132.914685 899.232689,149.066656 878.679501,149.066656 C865.405566,149.066656 858.269042,141.699091 855.842624,137.590256 L854.843511,137.590256 L854.843511,179.812075 L836.288549,179.812075 Z M874.540317,132.347949 C886.529677,132.347949 894.665314,123.138492 894.665314,109.961884 C894.665314,96.3602238 886.529677,87.5758184 874.397586,87.5758184 C862.122765,87.5758184 854.415319,97.3520115 854.415319,109.961884 C854.415319,123.846912 862.979148,132.347949 874.540317,132.347949 Z M933.482731,179.812075 L933.482731,72.6990028 L951.752232,72.6990028 L951.752232,82.191828 L952.751345,82.191828 C954.749572,79.0747809 961.600635,70.8571113 975.302761,70.8571113 C996.284141,70.8571113 1010.69992,86.4423467 1010.69992,109.678516 C1010.69992,132.914685 996.426872,149.066656 975.873683,149.066656 C962.599748,149.066656 955.463225,141.699091 953.036806,137.590256 L952.037693,137.590256 L952.037693,179.812075 L933.482731,179.812075 Z M971.734499,132.347949 C983.723859,132.347949 991.859496,123.138492 991.859496,109.961884 C991.859496,96.3602238 983.723859,87.5758184 971.591769,87.5758184 C959.316947,87.5758184 951.609502,97.3520115 951.609502,109.961884 C951.609502,123.846912 960.17333,132.347949 971.734499,132.347949 Z M1063.79038,149.066656 C1041.66716,149.066656 1025.96681,132.631317 1025.96681,110.386936 C1025.96681,86.8673986 1041.80989,70.8571113 1063.79038,70.8571113 C1087.91183,70.8571113 1101.04304,88.5676061 1101.04304,109.536832 L1101.04304,115.345874 L1043.95085,115.345874 C1044.52177,126.680591 1052.37195,134.331525 1064.36131,134.331525 C1073.49606,134.331525 1080.48985,130.081006 1083.059,123.988596 L1100.32939,123.988596 C1096.61839,139.148779 1083.20173,149.066656 1063.79038,149.066656 Z M1044.23631,102.31095 L1083.34446,102.31095 C1082.48808,92.251389 1074.6379,85.592243 1063.79038,85.592243 C1053.37106,85.592243 1045.37815,92.9598088 1044.23631,102.31095 Z M1139.28953,147.224765 C1126.15833,147.224765 1118.73634,139.432147 1118.73634,126.255539 L1118.73634,40.9617961 L1137.29131,40.9617961 L1137.29131,124.555332 C1137.29131,128.80585 1139.43226,131.072794 1143.28599,131.072794 L1146.28333,131.072794 L1146.28333,147.224765 L1139.28953,147.224765 Z M1173.39684,62.7811257 C1166.68851,62.7811257 1161.97841,58.6722909 1161.97841,52.0131448 C1161.97841,45.6373667 1166.68851,41.3868479 1173.39684,41.3868479 C1180.10518,41.3868479 1184.81528,45.6373667 1184.81528,52.0131448 C1184.81528,58.6722909 1180.10518,62.7811257 1173.39684,62.7811257 Z M1164.11936,147.224765 L1164.11936,72.6990028 L1182.67433,72.6990028 L1182.67433,147.224765 L1164.11936,147.224765 Z M1205.22047,147.224765 L1205.22047,72.6990028 L1222.91905,72.6990028 L1222.91905,81.7667761 L1223.91816,81.7667761 C1226.9155,76.2411017 1234.33749,70.8571113 1245.04227,70.8571113 C1261.88447,70.8571113 1272.16106,82.6168798 1272.16106,98.4854832 L1272.16106,147.224765 L1253.6061,147.224765 L1253.6061,103.302738 C1253.6061,94.2349644 1247.75415,88.1425542 1239.19032,88.1425542 C1230.1983,88.1425542 1223.77543,95.2267521 1223.77543,104.577893 L1223.77543,147.224765 L1205.22047,147.224765 Z" id="OpenZeppelin" fill="#282846" fill-rule="nonzero"></path>
                <g id="Group-7">
                    <path d="M180.590191,199.482368 L180.590191,147.599398 L123.901921,147.599398 C108.485809,147.599398 94.2057239,155.665205 86.3100584,168.833501 L67.9319855,199.482368 L180.590191,199.482368 Z" id="Stroke-1" fill="#63D2F9"></path>
                    <polygon id="Stroke-3" fill="#4E5EE4" points="0.167143314 0.166324827 0.167143314 52.0492942 149.479162 52.0492942 180.590291 0.166324827"></polygon>
                    <path d="M71.6262942,81.2514905 L0.331544381,199.482468 L61.0729897,199.482468 L146.328788,58.0358572 L112.787091,58.0358572 C95.9159164,58.0358572 80.2857759,66.8516384 71.6262942,81.2514905 Z" id="Stroke-5" fill="#63B0F9"></path>
                </g>
            </g>
        </g>
    </g>
</svg>